<?xml version="1.0" encoding="UTF-8" standalone="no"?>
<!DOCTYPE svg PUBLIC "-//W3C//DTD SVG 1.1//EN"
 "http://www.w3.org/Graphics/SVG/1.1/DTD/svg11.dtd">
<!-- Generated by graphviz version 11.0.0 (20240428.1522)
 -->
<!-- Pages: 1 -->
<svg width="225pt" height="332pt"
 viewBox="0.00 0.00 225.00 332.00" xmlns="http://www.w3.org/2000/svg" xmlns:xlink="http://www.w3.org/1999/xlink">
<g id="graph0" class="graph" transform="scale(1 1) rotate(0) translate(4 328)">
<polygon fill="white" stroke="none" points="-4,4 -4,-328 221,-328 221,4 -4,4"/>
<!-- 2 -->
<g id="node1" class="node">
<title>2</title>
<ellipse fill="none" stroke="black" cx="37" cy="-234" rx="27" ry="18"/>
<text text-anchor="middle" x="37" y="-228.95" font-family="Times,serif" font-size="14.00">2</text>
</g>
<!-- 3 -->
<g id="node2" class="node">
<title>3</title>
<ellipse fill="none" stroke="black" cx="27" cy="-162" rx="27" ry="18"/>
<text text-anchor="middle" x="27" y="-156.95" font-family="Times,serif" font-size="14.00">3</text>
</g>
<!-- 2&#45;&gt;3 -->
<g id="edge1" class="edge">
<title>2&#45;&gt;3</title>
<path fill="none" stroke="black" d="M34.53,-215.7C33.47,-208.32 32.22,-199.52 31.04,-191.25"/>
<polygon fill="black" stroke="black" points="34.54,-191.01 29.66,-181.6 27.61,-192 34.54,-191.01"/>
</g>
<!-- 8 -->
<g id="node3" class="node">
<title>8</title>
<ellipse fill="none" stroke="black" cx="112" cy="-90" rx="27" ry="18"/>
<text text-anchor="middle" x="112" y="-84.95" font-family="Times,serif" font-size="14.00">8</text>
</g>
<!-- 2&#45;&gt;8 -->
<g id="edge2" class="edge">
<title>2&#45;&gt;8</title>
<path fill="none" stroke="black" d="M45.6,-216.71C58.42,-192.45 82.66,-146.55 98.04,-117.43"/>
<polygon fill="black" stroke="black" points="100.98,-119.35 102.56,-108.87 94.79,-116.08 100.98,-119.35"/>
</g>
<!-- 4 -->
<g id="node4" class="node">
<title>4</title>
<ellipse fill="none" stroke="black" cx="33" cy="-90" rx="27" ry="18"/>
<text text-anchor="middle" x="33" y="-84.95" font-family="Times,serif" font-size="14.00">4</text>
</g>
<!-- 3&#45;&gt;4 -->
<g id="edge3" class="edge">
<title>3&#45;&gt;4</title>
<path fill="none" stroke="black" d="M28.48,-143.7C29.11,-136.41 29.85,-127.73 30.55,-119.54"/>
<polygon fill="black" stroke="black" points="34.04,-119.87 31.4,-109.61 27.06,-119.28 34.04,-119.87"/>
</g>
<!-- 5 -->
<g id="node5" class="node">
<title>5</title>
<ellipse fill="none" stroke="black" cx="69" cy="-18" rx="27" ry="18"/>
<text text-anchor="middle" x="69" y="-12.95" font-family="Times,serif" font-size="14.00">5</text>
</g>
<!-- 8&#45;&gt;5 -->
<g id="edge8" class="edge">
<title>8&#45;&gt;5</title>
<path fill="none" stroke="black" d="M102.03,-72.76C96.93,-64.46 90.59,-54.15 84.84,-44.79"/>
<polygon fill="black" stroke="black" points="87.93,-43.13 79.71,-36.44 81.96,-46.79 87.93,-43.13"/>
</g>
<!-- 4&#45;&gt;5 -->
<g id="edge4" class="edge">
<title>4&#45;&gt;5</title>
<path fill="none" stroke="black" d="M41.35,-72.76C45.58,-64.55 50.81,-54.37 55.58,-45.09"/>
<polygon fill="black" stroke="black" points="58.54,-46.99 60,-36.49 52.32,-43.79 58.54,-46.99"/>
</g>
<!-- 6 -->
<g id="node6" class="node">
<title>6</title>
<ellipse fill="none" stroke="black" cx="122" cy="-234" rx="27" ry="18"/>
<text text-anchor="middle" x="122" y="-228.95" font-family="Times,serif" font-size="14.00">6</text>
</g>
<!-- 6&#45;&gt;8 -->
<g id="edge5" class="edge">
<title>6&#45;&gt;8</title>
<path fill="none" stroke="black" d="M120.77,-215.59C119.09,-191.61 116.02,-148.14 114,-119.42"/>
<polygon fill="black" stroke="black" points="117.51,-119.35 113.31,-109.62 110.52,-119.84 117.51,-119.35"/>
</g>
<!-- 7 -->
<g id="node7" class="node">
<title>7</title>
<ellipse fill="none" stroke="black" cx="190" cy="-162" rx="27" ry="18"/>
<text text-anchor="middle" x="190" y="-156.95" font-family="Times,serif" font-size="14.00">7</text>
</g>
<!-- 6&#45;&gt;7 -->
<g id="edge6" class="edge">
<title>6&#45;&gt;7</title>
<path fill="none" stroke="black" d="M136.09,-218.5C145.3,-209.02 157.52,-196.44 167.99,-185.66"/>
<polygon fill="black" stroke="black" points="170.42,-188.18 174.87,-178.57 165.4,-183.31 170.42,-188.18"/>
</g>
<!-- 7&#45;&gt;5 -->
<g id="edge7" class="edge">
<title>7&#45;&gt;5</title>
<path fill="none" stroke="black" d="M185.05,-144.05C178.81,-124.91 166.61,-93.63 148,-72 134.84,-56.7 116.23,-43.92 100.39,-34.76"/>
<polygon fill="black" stroke="black" points="102.22,-31.77 91.78,-29.99 98.83,-37.9 102.22,-31.77"/>
</g>
<!-- 1 -->
<g id="node8" class="node">
<title>1</title>
<ellipse fill="none" stroke="black" cx="73" cy="-306" rx="27" ry="18"/>
<text text-anchor="middle" x="73" y="-300.95" font-family="Times,serif" font-size="14.00">1</text>
</g>
<!-- 1&#45;&gt;2 -->
<g id="edge9" class="edge">
<title>1&#45;&gt;2</title>
<path fill="none" stroke="black" d="M64.65,-288.76C60.42,-280.55 55.19,-270.37 50.42,-261.09"/>
<polygon fill="black" stroke="black" points="53.68,-259.79 46,-252.49 47.46,-262.99 53.68,-259.79"/>
</g>
<!-- 1&#45;&gt;6 -->
<g id="edge10" class="edge">
<title>1&#45;&gt;6</title>
<path fill="none" stroke="black" d="M84.12,-289.12C90.13,-280.52 97.7,-269.72 104.49,-260.02"/>
<polygon fill="black" stroke="black" points="107.19,-262.26 110.06,-252.06 101.46,-258.25 107.19,-262.26"/>
</g>
</g>
</svg>
