<?xml version="1.0" encoding="UTF-8" standalone="no"?>
<!DOCTYPE svg PUBLIC "-//W3C//DTD SVG 1.1//EN"
 "http://www.w3.org/Graphics/SVG/1.1/DTD/svg11.dtd">
<!-- Generated by graphviz version 11.0.0 (20240428.1522)
 -->
<!-- Pages: 1 -->
<svg width="344pt" height="332pt"
 viewBox="0.00 0.00 343.59 331.76" xmlns="http://www.w3.org/2000/svg" xmlns:xlink="http://www.w3.org/1999/xlink">
<g id="graph0" class="graph" transform="scale(1 1) rotate(0) translate(4 327.76)">
<polygon fill="white" stroke="none" points="-4,4 -4,-327.76 339.59,-327.76 339.59,4 -4,4"/>
<!-- 6 -->
<g id="node1" class="node">
<title>6</title>
<ellipse fill="none" stroke="black" cx="250.76" cy="-61.92" rx="27" ry="18"/>
<text text-anchor="middle" x="250.76" y="-56.87" font-family="Times,serif" font-size="14.00">6</text>
</g>
<!-- 8 -->
<g id="node2" class="node">
<title>8</title>
<ellipse fill="none" stroke="black" cx="308.59" cy="-18" rx="27" ry="18"/>
<text text-anchor="middle" x="308.59" y="-12.95" font-family="Times,serif" font-size="14.00">8</text>
</g>
<!-- 6&#45;&gt;8 -->
<g id="edge1" class="edge">
<title>6&#45;&gt;8</title>
<path fill="none" stroke="red" d="M268.74,-48.26C272.73,-45.23 277.04,-41.96 281.31,-38.72"/>
<polygon fill="red" stroke="red" points="283.37,-41.55 289.22,-32.71 279.14,-35.97 283.37,-41.55"/>
</g>
<!-- 7 -->
<g id="node3" class="node">
<title>7</title>
<ellipse fill="none" stroke="black" cx="144.58" cy="-302.32" rx="27" ry="18"/>
<text text-anchor="middle" x="144.58" y="-297.27" font-family="Times,serif" font-size="14.00">7</text>
</g>
<!-- 2 -->
<g id="node4" class="node">
<title>2</title>
<ellipse fill="none" stroke="black" cx="104.39" cy="-233.38" rx="27" ry="18"/>
<text text-anchor="middle" x="104.39" y="-228.33" font-family="Times,serif" font-size="14.00">2</text>
</g>
<!-- 7&#45;&gt;2 -->
<g id="edge2" class="edge">
<title>7&#45;&gt;2</title>
<path fill="none" stroke="red" d="M134.65,-285.28C130.22,-277.68 124.9,-268.55 119.96,-260.08"/>
<polygon fill="red" stroke="red" points="123.04,-258.41 114.98,-251.53 116.99,-261.93 123.04,-258.41"/>
</g>
<!-- 3 -->
<g id="node5" class="node">
<title>3</title>
<ellipse fill="none" stroke="black" cx="80.1" cy="-305.76" rx="27" ry="18"/>
<text text-anchor="middle" x="80.1" y="-300.71" font-family="Times,serif" font-size="14.00">3</text>
</g>
<!-- 7&#45;&gt;3 -->
<g id="edge3" class="edge">
<title>7&#45;&gt;3</title>
<path fill="none" stroke="red" d="M117.24,-303.78C117.13,-303.78 117.03,-303.79 116.93,-303.79"/>
<polygon fill="red" stroke="red" points="118.59,-300.2 108.8,-304.23 118.97,-307.19 118.59,-300.2"/>
</g>
<!-- 10 -->
<g id="node6" class="node">
<title>10</title>
<ellipse fill="none" stroke="black" cx="27" cy="-207.65" rx="27" ry="18"/>
<text text-anchor="middle" x="27" y="-202.6" font-family="Times,serif" font-size="14.00">10</text>
</g>
<!-- 2&#45;&gt;10 -->
<g id="edge4" class="edge">
<title>2&#45;&gt;10</title>
<path fill="none" stroke="red" d="M79.91,-225.24C74.26,-223.36 68.14,-221.33 62.14,-219.33"/>
<polygon fill="red" stroke="red" points="63.62,-216.14 53.03,-216.3 61.42,-222.78 63.62,-216.14"/>
</g>
<!-- 3&#45;&gt;2 -->
<g id="edge5" class="edge">
<title>3&#45;&gt;2</title>
<path fill="none" stroke="red" d="M86.11,-287.87C88.71,-280.13 91.81,-270.87 94.72,-262.2"/>
<polygon fill="red" stroke="red" points="98.03,-263.34 97.89,-252.75 91.39,-261.12 98.03,-263.34"/>
</g>
<!-- 4 -->
<g id="node7" class="node">
<title>4</title>
<ellipse fill="none" stroke="black" cx="154.31" cy="-172.84" rx="27" ry="18"/>
<text text-anchor="middle" x="154.31" y="-167.79" font-family="Times,serif" font-size="14.00">4</text>
</g>
<!-- 4&#45;&gt;2 -->
<g id="edge6" class="edge">
<title>4&#45;&gt;2</title>
<path fill="none" stroke="red" d="M141.2,-188.75C136.19,-194.81 130.36,-201.89 124.84,-208.59"/>
<polygon fill="red" stroke="red" points="122.22,-206.26 118.56,-216.2 127.62,-210.71 122.22,-206.26"/>
</g>
<!-- 5 -->
<g id="node8" class="node">
<title>5</title>
<ellipse fill="none" stroke="black" cx="200.96" cy="-115.25" rx="27" ry="18"/>
<text text-anchor="middle" x="200.96" y="-110.2" font-family="Times,serif" font-size="14.00">5</text>
</g>
<!-- 4&#45;&gt;5 -->
<g id="edge7" class="edge">
<title>4&#45;&gt;5</title>
<path fill="none" stroke="red" d="M167.31,-156.8C171.55,-151.56 176.37,-145.61 181.01,-139.88"/>
<polygon fill="red" stroke="red" points="183.51,-142.36 187.08,-132.38 178.07,-137.95 183.51,-142.36"/>
</g>
<!-- 5&#45;&gt;6 -->
<g id="edge8" class="edge">
<title>5&#45;&gt;6</title>
<path fill="none" stroke="red" d="M215.36,-99.83C219.46,-95.44 224.02,-90.56 228.46,-85.8"/>
<polygon fill="red" stroke="red" points="230.92,-88.3 235.19,-78.6 225.8,-83.52 230.92,-88.3"/>
</g>
</g>
</svg>
