<?xml version="1.0" encoding="UTF-8" standalone="no"?>
<!DOCTYPE svg PUBLIC "-//W3C//DTD SVG 1.1//EN"
 "http://www.w3.org/Graphics/SVG/1.1/DTD/svg11.dtd">
<!-- Generated by graphviz version 11.0.0 (20240428.1522)
 -->
<!-- Pages: 1 -->
<svg width="210pt" height="332pt"
 viewBox="0.00 0.00 210.00 332.00" xmlns="http://www.w3.org/2000/svg" xmlns:xlink="http://www.w3.org/1999/xlink">
<g id="graph0" class="graph" transform="scale(1 1) rotate(0) translate(4 328)">
<polygon fill="white" stroke="none" points="-4,4 -4,-328 206,-328 206,4 -4,4"/>
<!-- 4 -->
<g id="node1" class="node">
<title>4</title>
<ellipse fill="none" stroke="black" cx="164" cy="-90" rx="27" ry="18"/>
<text text-anchor="middle" x="164" y="-84.95" font-family="Times,serif" font-size="14.00">4</text>
</g>
<!-- 5 -->
<g id="node2" class="node">
<title>5</title>
<ellipse fill="none" stroke="black" cx="54" cy="-18" rx="27" ry="18"/>
<text text-anchor="middle" x="54" y="-12.95" font-family="Times,serif" font-size="14.00">5</text>
</g>
<!-- 4&#45;&gt;5 -->
<g id="edge1" class="edge">
<title>4&#45;&gt;5</title>
<path fill="none" stroke="black" d="M144.84,-76.81C127.65,-65.87 102.18,-49.66 82.58,-37.19"/>
<polygon fill="black" stroke="black" points="84.53,-34.28 74.22,-31.87 80.78,-40.19 84.53,-34.28"/>
</g>
<!-- 6 -->
<g id="node3" class="node">
<title>6</title>
<ellipse fill="none" stroke="black" cx="37" cy="-234" rx="27" ry="18"/>
<text text-anchor="middle" x="37" y="-228.95" font-family="Times,serif" font-size="14.00">6</text>
</g>
<!-- 7 -->
<g id="node4" class="node">
<title>7</title>
<ellipse fill="none" stroke="black" cx="27" cy="-162" rx="27" ry="18"/>
<text text-anchor="middle" x="27" y="-156.95" font-family="Times,serif" font-size="14.00">7</text>
</g>
<!-- 6&#45;&gt;7 -->
<g id="edge2" class="edge">
<title>6&#45;&gt;7</title>
<path fill="none" stroke="black" d="M34.53,-215.7C33.47,-208.32 32.22,-199.52 31.04,-191.25"/>
<polygon fill="black" stroke="black" points="34.54,-191.01 29.66,-181.6 27.61,-192 34.54,-191.01"/>
</g>
<!-- 8 -->
<g id="node5" class="node">
<title>8</title>
<ellipse fill="none" stroke="black" cx="82" cy="-90" rx="27" ry="18"/>
<text text-anchor="middle" x="82" y="-84.95" font-family="Times,serif" font-size="14.00">8</text>
</g>
<!-- 6&#45;&gt;8 -->
<g id="edge3" class="edge">
<title>6&#45;&gt;8</title>
<path fill="none" stroke="black" d="M46.28,-216.74C51.8,-206.48 58.58,-192.78 63,-180 69.8,-160.35 74.63,-137.38 77.72,-119.69"/>
<polygon fill="black" stroke="black" points="81.16,-120.33 79.34,-109.9 74.26,-119.19 81.16,-120.33"/>
</g>
<!-- 7&#45;&gt;5 -->
<g id="edge4" class="edge">
<title>7&#45;&gt;5</title>
<path fill="none" stroke="black" d="M30.26,-143.87C34.82,-119.88 43.16,-75.99 48.65,-47.16"/>
<polygon fill="black" stroke="black" points="52.02,-48.15 50.45,-37.68 45.14,-46.85 52.02,-48.15"/>
</g>
<!-- 8&#45;&gt;5 -->
<g id="edge5" class="edge">
<title>8&#45;&gt;5</title>
<path fill="none" stroke="black" d="M75.36,-72.41C72.23,-64.57 68.4,-54.99 64.85,-46.13"/>
<polygon fill="black" stroke="black" points="68.11,-44.86 61.15,-36.88 61.61,-47.46 68.11,-44.86"/>
</g>
<!-- 1 -->
<g id="node6" class="node">
<title>1</title>
<ellipse fill="none" stroke="black" cx="73" cy="-306" rx="27" ry="18"/>
<text text-anchor="middle" x="73" y="-300.95" font-family="Times,serif" font-size="14.00">1</text>
</g>
<!-- 1&#45;&gt;6 -->
<g id="edge6" class="edge">
<title>1&#45;&gt;6</title>
<path fill="none" stroke="black" d="M64.65,-288.76C60.42,-280.55 55.19,-270.37 50.42,-261.09"/>
<polygon fill="black" stroke="black" points="53.68,-259.79 46,-252.49 47.46,-262.99 53.68,-259.79"/>
</g>
<!-- 2 -->
<g id="node7" class="node">
<title>2</title>
<ellipse fill="none" stroke="black" cx="114" cy="-234" rx="27" ry="18"/>
<text text-anchor="middle" x="114" y="-228.95" font-family="Times,serif" font-size="14.00">2</text>
</g>
<!-- 1&#45;&gt;2 -->
<g id="edge7" class="edge">
<title>1&#45;&gt;2</title>
<path fill="none" stroke="black" d="M82.51,-288.76C87.37,-280.46 93.41,-270.15 98.89,-260.79"/>
<polygon fill="black" stroke="black" points="101.74,-262.85 103.78,-252.45 95.7,-259.31 101.74,-262.85"/>
</g>
<!-- 2&#45;&gt;8 -->
<g id="edge8" class="edge">
<title>2&#45;&gt;8</title>
<path fill="none" stroke="black" d="M110.85,-215.87C107.46,-197.91 101.79,-168.87 96,-144 94.11,-135.9 91.88,-127.16 89.77,-119.16"/>
<polygon fill="black" stroke="black" points="93.17,-118.33 87.19,-109.58 86.41,-120.15 93.17,-118.33"/>
</g>
<!-- 3 -->
<g id="node8" class="node">
<title>3</title>
<ellipse fill="none" stroke="black" cx="175" cy="-162" rx="27" ry="18"/>
<text text-anchor="middle" x="175" y="-156.95" font-family="Times,serif" font-size="14.00">3</text>
</g>
<!-- 2&#45;&gt;3 -->
<g id="edge9" class="edge">
<title>2&#45;&gt;3</title>
<path fill="none" stroke="black" d="M127.24,-217.81C135.15,-208.73 145.38,-197 154.33,-186.72"/>
<polygon fill="black" stroke="black" points="156.86,-189.14 160.8,-179.3 151.59,-184.54 156.86,-189.14"/>
</g>
<!-- 3&#45;&gt;4 -->
<g id="edge10" class="edge">
<title>3&#45;&gt;4</title>
<path fill="none" stroke="black" d="M172.28,-143.7C171.12,-136.32 169.74,-127.52 168.44,-119.25"/>
<polygon fill="black" stroke="black" points="171.93,-118.93 166.92,-109.6 165.02,-120.02 171.93,-118.93"/>
</g>
</g>
</svg>
